<?xml version="1.0" standalone="no"?>
<!DOCTYPE svg PUBLIC "-//W3C//DTD SVG 20010904//EN"
 "http://www.w3.org/TR/2001/REC-SVG-20010904/DTD/svg10.dtd">
<svg version="1.0" xmlns="http://www.w3.org/2000/svg"
 width="1280.000000pt" height="1280.000000pt" viewBox="0 0 1280.000000 1280.000000"
 preserveAspectRatio="xMidYMid meet">
<metadata>
Created by potrace 1.15, written by Peter Selinger 2001-2017
</metadata>
<g transform="translate(0.000000,1280.000000) scale(0.100000,-0.100000)"
fill="#000000" stroke="none">
<path d="M115 12782 c-49 -23 -79 -55 -100 -104 -13 -34 -15 -668 -15 -6278 0
-5610 2 -6244 15 -6278 21 -49 52 -81 100 -103 39 -18 235 -19 6285 -19 6037
0 6246 1 6285 19 138 62 152 246 26 332 l-35 24 -610 5 -611 5 -70 50 c-354
251 -680 567 -931 900 -361 478 -623 1068 -734 1647 -52 274 -70 468 -70 757
0 690 155 1285 491 1891 l70 125 416 240 c230 132 430 251 445 264 76 63 86
185 21 261 -53 63 -143 87 -216 57 -18 -8 -394 -223 -837 -479 l-806 -465
-112 13 c-612 70 -1197 279 -1687 604 -395 261 -735 589 -1004 969 -231 326
-433 750 -537 1129 -82 300 -114 528 -121 862 l-5 255 389 675 c215 371 400
694 412 717 57 112 -6 244 -129 272 -64 14 -124 -3 -168 -48 -20 -21 -260
-425 -557 -940 l-521 -903 -85 -35 c-314 -127 -702 -223 -1069 -264 -148 -17
-632 -17 -765 -1 -359 45 -600 98 -884 197 -808 282 -1488 822 -1930 1535
l-81 129 -2 939 -3 938 -24 35 c-53 78 -156 109 -236 71z m373 -3191 c491
-397 1099 -692 1712 -830 274 -62 447 -86 747 -103 658 -36 1343 100 1940 387
91 43 133 59 136 51 3 -7 8 -37 12 -67 l7 -54 -742 -1285 c-408 -707 -747
-1290 -753 -1297 -25 -25 -316 -97 -527 -129 -145 -22 -538 -25 -680 -5 -439
61 -817 200 -1154 425 -161 108 -257 186 -392 321 -134 133 -220 239 -330 406
l-84 127 0 1066 c0 586 2 1066 5 1066 3 0 49 -35 103 -79z m4717 -1203 c156
-445 397 -879 691 -1248 137 -172 460 -495 632 -632 594 -474 1280 -767 2017
-862 160 -21 492 -39 585 -32 54 5 71 3 60 -5 -71 -50 -2807 -1619 -2824
-1619 -37 0 -296 67 -403 104 -217 76 -402 170 -613 312 -759 508 -1191 1372
-1133 2264 l8 125 475 822 c261 453 477 823 481 823 3 0 13 -24 24 -52z
m-4680 -1948 c388 -243 832 -396 1310 -451 140 -17 487 -17 630 0 339 39 690
138 946 267 39 19 73 34 75 32 1 -2 -32 -64 -75 -138 -159 -275 -1745 -3022
-2364 -4095 -352 -610 -646 -1117 -653 -1125 -12 -12 -14 432 -14 2794 l0
2808 28 -18 c15 -10 68 -43 117 -74z m3164 -729 c76 -185 252 -474 409 -670
98 -123 340 -365 463 -464 362 -287 805 -497 1241 -586 119 -25 315 -51 388
-52 30 0 62 -3 71 -7 13 -6 -2365 -1385 -5494 -3187 l-51 -29 26 44 c28 49
2259 3914 2656 4602 136 235 250 428 253 428 3 0 20 -36 38 -79z m5450 -625
c-83 -445 -92 -1001 -24 -1461 109 -734 395 -1420 840 -2010 354 -471 837
-889 1346 -1165 52 -28 98 -55 103 -61 6 -5 -644 -9 -1756 -9 l-1767 0 -153
153 c-462 460 -734 1006 -824 1657 -23 168 -23 507 0 680 53 394 181 748 391
1084 41 66 79 132 85 146 9 22 185 127 888 533 482 278 877 505 878 504 1 -1
-2 -24 -7 -51z m-2809 -1608 c0 -18 -5 -62 -10 -98 -13 -86 -13 -518 0 -634
33 -287 85 -518 173 -766 217 -612 611 -1137 1124 -1500 65 -46 122 -87 128
-92 5 -4 -1530 -8 -3410 -8 -3103 1 -3418 2 -3400 17 24 18 5377 3111 5388
3112 4 1 7 -14 7 -31z"/>
</g>
</svg>
